# xmcd
#
# Track frame offsets:
#	150
#	10152
#	23000
#	36087
#	48185
#	61107
#	73240
#	84135
#	96602
#	110245
#	123277
#	135717
#	148610
#	160567
#	172812
#	183867
#	198577
#	208962
#	221325
#	233772
#	246902
#	257435
#	269657
#	280722
#	290822
#	303955
#	315530
#	326202
#	336565
#	347232
#
# Disc length: 4775 seconds
#
# Revision: 1
# Processed by: cddbd v1.5.1PL2 Copyright (c) Steve Scherf et al.
# Submitted via: audiograbber 1.83.01
#
DISCID=c512a51e
DTITLE=Red Foley - Sugarfoot Rag
DYEAR=2005
DGENRE=Country
TTITLE0=Crazy Little Guitar Man
TTITLE1=Freight Train Boogie
TTITLE2=Rockin' Chair Money
TTITLE3=Tennessee Saturday Night
TTITLE4=A Wonderful Time Up There
TTITLE5=Tennessee Border
TTITLE6=Sugarfoot Rag
TTITLE7=Chattanoogie Shoe Shine Boy
TTITLE8=Birmingham Bounce
TTITLE9=Old Kentucky Fox Chase
TTITLE10=Hillbilly Fever (#2) (w. Ernest Tubb)
TTITLE11=Hobo Boogie
TTITLE12=Crawdad Song (w. Evelyn Knight)
TTITLE13=Paging Mister Jackson (w. Cecil Gant)
TTITLE14=Hot Rod Race (w. Cecil Gant)
TTITLE15=Giles Country, Pulaski Post Office
TTITLE16=Real Chicken Reel
TTITLE17=Night Train To Memphis (w. Roberta Lee)
TTITLE18=Alabama Jubilee
TTITLE19=Salty Dog Rag
TTITLE20=Dixie
TTITLE21=Milk Bucket Boogie
TTITLE22=The Hoot Owl Boogie
TTITLE23=Hot Dog Rag
TTITLE24=Shake A Hand
TTITLE25=Pin Ball Boogie
TTITLE26=Hearts Of Stone
TTITLE27=Plantation Boogie
TTITLE28=Deep Blues
TTITLE29=Rock 'n' Reelin'
EXTD=Bear Family BCD 16578
EXTT0=
EXTT1=
EXTT2=
EXTT3=
EXTT4=
EXTT5=
EXTT6=
EXTT7=
EXTT8=
EXTT9=
EXTT10=
EXTT11=
EXTT12=
EXTT13=
EXTT14=
EXTT15=
EXTT16=
EXTT17=
EXTT18=
EXTT19=
EXTT20=
EXTT21=
EXTT22=
EXTT23=
EXTT24=
EXTT25=
EXTT26=
EXTT27=
EXTT28=
EXTT29=
PLAYORDER=
